<svg xmlns="http://www.w3.org/2000/svg" width="528" height="132" viewBox="0 0 528 132" role="img" aria-label="agentsio.dev logo, horizontal reversed"><title>agentsio.dev logo, horizontal reversed</title><g stroke="#FFFFFF" stroke-width="2.52" stroke-linecap="round"><line x1="61.63625600897886" y1="66.0" x2="61.64" y2="33.43"/><line x1="61.63625600897886" y1="66.0" x2="89.84" y2="49.71"/><line x1="61.63625600897886" y1="66.0" x2="89.84" y2="82.29"/><line x1="61.63625600897886" y1="66.0" x2="61.64" y2="98.57"/><line x1="61.63625600897886" y1="66.0" x2="33.43" y2="82.29"/><line x1="61.63625600897886" y1="66.0" x2="33.43" y2="49.71"/></g><g fill="#FFFFFF"><circle cx="61.64" cy="33.43" r="5.43"/><circle cx="89.84" cy="49.71" r="5.43"/><circle cx="89.84" cy="82.29" r="5.43"/><circle cx="61.64" cy="98.57" r="5.43"/><circle cx="33.43" cy="82.29" r="5.43"/><circle cx="33.43" cy="49.71" r="5.43"/></g><circle cx="61.63625600897886" cy="66.0" r="10.86" fill="#15B8C7"/><g fill="#FFFFFF"><path d="M228.5496826171875 -14Q176.2496337890625 -14 134.42462158203125 4.1500244140625Q92.599609375 22.300048828125 68.27459716796875 57.27508544921875Q43.9495849609375 92.2501220703125 43.9495849609375 142.2001953125Q43.9495849609375 192.500244140625 68.27459716796875 226.12530517578125Q92.599609375 259.7503662109375 135.22467041015625 276.72540283203125Q177.8497314453125 293.700439453125 231.7498779296875 293.700439453125H382.4488525390625V325.5501708984375Q382.4488525390625 368.9495849609375 356.2491455078125 395.12432861328125Q330.0494384765625 421.299072265625 276.099853515625 421.299072265625Q223.1502685546875 421.299072265625 195.07562255859375 396.29931640625Q167.0009765625 371.299560546875 157.901123046875 330.6500244140625L62.19970703125 361.9505615234375Q74.19970703125 401.700439453125 100.52471923828125 434.2503662109375Q126.8497314453125 466.80029296875 170.82476806640625 486.6502685546875Q214.7998046875 506.500244140625 277.39990234375 506.500244140625Q373.300048828125 506.500244140625 428.02520751953125 457.8502197265625Q482.7503662109375 409.2001953125 482.7503662109375 318.6500244140625V115.80126953125Q482.7503662109375 85.80126953125 510.7503662109375 85.80126953125H553.2001953125V0H476.19970703125Q441.299560546875 0 419.3994140625 18.17498779296875Q397.499267578125 36.3499755859375 397.499267578125 67.0499267578125V70.1497802734375H381.6490478515625Q374.499267578125 54.6500244140625 358.22442626953125 34.62506103515625Q341.9495849609375 14.60009765625 310.899658203125 0.300048828125Q279.8497314453125 -14 228.5496826171875 -14ZM244.2501220703125 71.201171875Q305.6495361328125 71.201171875 344.0491943359375 106.6507568359375Q382.4488525390625 142.100341796875 382.4488525390625 203.699462890625V214.3994140625H237.9500732421875Q197.00048828125 214.3994140625 171.92584228515625 196.77459716796875Q146.8511962890625 179.1497802734375 146.8511962890625 145.1502685546875Q146.8511962890625 111.1507568359375 172.92584228515625 91.17596435546875Q199.00048828125 71.201171875 244.2501220703125 71.201171875Z" transform="translate(121.27,87.0) scale(0.06,-0.06)"/><path d="M52.299560546875 244.2501220703125V258.8502197265625Q52.299560546875 336.500244140625 83.47454833984375 391.82525634765625Q114.6495361328125 447.1502685546875 166.67449951171875 476.82525634765625Q218.699462890625 506.500244140625 281.099365234375 506.500244140625Q353.299072265625 506.500244140625 391.62384033203125 479.87542724609375Q429.9486083984375 453.2506103515625 447.698486328125 422.3509521484375H463.5986328125V492.500244140625H563.80029296875V-100.59912109375Q563.80029296875 -146.3494873046875 537.6500244140625 -173.17474365234375Q511.499755859375 -200 465.3494873046875 -200H133.3494873046875V-109.5986328125H432.5487060546875Q461.5986328125 -109.5986328125 461.5986328125 -79.5986328125V77.3994140625H445.698486328125Q434.6485595703125 58.599609375 414.72369384765625 39.82476806640625Q394.798828125 21.0499267578125 362.3489990234375 8.82501220703125Q329.899169921875 -3.39990234375 281.099365234375 -3.39990234375Q218.699462890625 -3.39990234375 166.49951171875 26.27508544921875Q114.299560546875 55.9500732421875 83.299560546875 111.4500732421875Q52.299560546875 166.9500732421875 52.299560546875 244.2501220703125ZM309.39990234375 87.00146484375Q376.1492919921875 87.00146484375 419.52398681640625 129.2510986328125Q462.898681640625 171.500732421875 462.898681640625 246.900146484375V256.2001953125Q462.898681640625 332.599609375 419.8489990234375 374.3492431640625Q376.79931640625 416.098876953125 309.39990234375 416.098876953125Q243.00048828125 416.098876953125 199.4508056640625 374.3492431640625Q155.901123046875 332.599609375 155.901123046875 256.2001953125V246.900146484375Q155.901123046875 171.500732421875 199.4508056640625 129.2510986328125Q243.00048828125 87.00146484375 309.39990234375 87.00146484375Z" transform="translate(155.89,87.0) scale(0.06,-0.06)"/><path d="M301.599609375 -14Q227.2496337890625 -14 171.099609375 17.5Q114.9495849609375 49 83.62457275390625 106.32501220703125Q52.299560546875 163.6500244140625 52.299560546875 240.2501220703125V252.2501220703125Q52.299560546875 329.2001953125 83.299560546875 386.3502197265625Q114.299560546875 443.500244140625 169.77459716796875 475.000244140625Q225.2496337890625 506.500244140625 297.8497314453125 506.500244140625Q369.099853515625 506.500244140625 422.57489013671875 475.400146484375Q476.0499267578125 444.300048828125 506.0499267578125 388.199951171875Q536.0499267578125 332.099853515625 536.0499267578125 256.7998046875V217.6495361328125H156.501220703125Q158.8511962890625 152.6505126953125 200.62579345703125 114.52593994140625Q242.400390625 76.4013671875 304.19970703125 76.4013671875Q362.4493408203125 76.4013671875 391.82403564453125 102.201171875Q421.19873046875 128.0009765625 436.6485595703125 161.9505615234375L522.499755859375 118.4498291015625Q508.1497802734375 90 481.6497802734375 59.1500244140625Q455.1497802734375 28.300048828125 411.8497314453125 7.1500244140625Q368.5496826171875 -14 301.599609375 -14ZM157.501220703125 296.9505615234375H431.498291015625Q427.498291015625 352.5496826171875 391.22369384765625 384.32427978515625Q354.9490966796875 416.098876953125 297.19970703125 416.098876953125Q238.500244140625 416.098876953125 202.20068359375 384.32427978515625Q165.901123046875 352.5496826171875 157.501220703125 296.9505615234375Z" transform="translate(194.29,87.0) scale(0.06,-0.06)"/><path d="M76.299560546875 0V492.500244140625H177.201171875V418.7508544921875H193.101318359375Q207.201171875 449.300537109375 243.0009765625 475.2503662109375Q278.80078125 501.2001953125 349.6505126953125 501.2001953125Q405.900634765625 501.2001953125 449.57562255859375 476.27508544921875Q493.2506103515625 451.3499755859375 518.1255493164062 405.5499267578125Q543.00048828125 359.7498779296875 543.00048828125 296V0H440.098876953125V288.099853515625Q440.098876953125 352.499267578125 408.22418212890625 382.9490966796875Q376.3494873046875 413.39892578125 319.7498779296875 413.39892578125Q255.80029296875 413.39892578125 217.500732421875 371.0491943359375Q179.201171875 328.699462890625 179.201171875 248.8502197265625V0Z" transform="translate(229.33,87.0) scale(0.06,-0.06)"/><path d="M261.39990234375 0Q215.899658203125 0 189.2493896484375 26.82525634765625Q162.59912109375 53.6505126953125 162.59912109375 99.40087890625V405.9990234375H27.39990234375V492.500244140625H162.59912109375V656.299560546875H265.500732421875V492.500244140625H413.39990234375V405.9990234375H265.500732421875V116.501220703125Q265.500732421875 86.501220703125 294.20068359375 86.501220703125H396.500244140625V0Z" transform="translate(266.23,87.0) scale(0.06,-0.06)"/><path d="M277.7498779296875 -14Q183.899658203125 -14 121.72467041015625 28.0Q59.5496826171875 70 46.19970703125 154.6495361328125L142.2510986328125 178Q149.60107421875 136.700439453125 168.90087890625 113.02569580078125Q188.20068359375 89.3509521484375 216.5504150390625 79.27606201171875Q244.900146484375 69.201171875 277.7498779296875 69.201171875Q327.3494873046875 69.201171875 353.77410888671875 87.8509521484375Q380.19873046875 106.500732421875 380.19873046875 136.500244140625Q380.19873046875 166.8497314453125 355.12408447265625 180.92462158203125Q330.0494384765625 194.99951171875 281.499755859375 203.699462890625L247.2001953125 209.7493896484375Q197.300048828125 219.0494384765625 156.39990234375 236.199462890625Q115.499755859375 253.3494873046875 91.07464599609375 283.299560546875Q66.6495361328125 313.2496337890625 66.6495361328125 359.7998046875Q66.6495361328125 429.9500732421875 119.07464599609375 468.22515869140625Q171.499755859375 506.500244140625 257.39990234375 506.500244140625Q340.39990234375 506.500244140625 393.82501220703125 469.32525634765625Q447.2501220703125 432.1502685546875 462.8502197265625 368.300537109375L367.19873046875 340.699951171875Q358.498779296875 385.699462890625 329.4490966796875 404.499267578125Q300.3994140625 423.299072265625 257.39990234375 423.299072265625Q214.7503662109375 423.299072265625 190.8507080078125 407.82427978515625Q166.9510498046875 392.3494873046875 166.9510498046875 363.699951171875Q166.9510498046875 334.100341796875 190.4508056640625 320.1505126953125Q213.9505615234375 306.20068359375 254.2501220703125 299.1507568359375L288.5496826171875 293.100830078125Q342.4498291015625 283.80078125 386.02496337890625 267.6507568359375Q429.60009765625 251.500732421875 455.0501708984375 221.87567138671875Q480.500244140625 192.2506103515625 480.500244140625 142.3504638671875Q480.500244140625 67.500244140625 425.57513427734375 26.7501220703125Q370.6500244140625 -14 277.7498779296875 -14Z" transform="translate(293.71,87.0) scale(0.06,-0.06)"/><path d="M76.299560546875 0V492.500244140625H179.201171875V0ZM127.7503662109375 559.599609375Q97.9500732421875 559.599609375 77.42486572265625 579.1497802734375Q56.899658203125 598.699951171875 56.899658203125 629.80029296875Q56.899658203125 661.2506103515625 77.42486572265625 680.6257934570312Q97.9500732421875 700.0009765625 127.7503662109375 700.0009765625Q158.5506591796875 700.0009765625 178.57586669921875 680.6257934570312Q198.60107421875 661.2506103515625 198.60107421875 629.80029296875Q198.60107421875 598.699951171875 178.57586669921875 579.1497802734375Q158.5506591796875 559.599609375 127.7503662109375 559.599609375Z" transform="translate(325.21,87.0) scale(0.06,-0.06)"/><path d="M307.39990234375 -14Q233.39990234375 -14 175.62481689453125 16.52496337890625Q117.8497314453125 47.0499267578125 85.07464599609375 103.87493896484375Q52.299560546875 160.699951171875 52.299560546875 238.9500732421875V253.5501708984375Q52.299560546875 331.80029296875 85.07464599609375 388.62530517578125Q117.8497314453125 445.4503173828125 175.62481689453125 475.97528076171875Q233.39990234375 506.500244140625 307.39990234375 506.500244140625Q381.39990234375 506.500244140625 439.17498779296875 475.97528076171875Q496.9500732421875 445.4503173828125 529.7251586914062 388.62530517578125Q562.500244140625 331.80029296875 562.500244140625 253.5501708984375V238.9500732421875Q562.500244140625 160.699951171875 529.7251586914062 103.87493896484375Q496.9500732421875 47.0499267578125 439.17498779296875 16.52496337890625Q381.39990234375 -14 307.39990234375 -14ZM307.39990234375 77.701416015625Q375.19921875 77.701416015625 417.39892578125 121.1510009765625Q459.5986328125 164.6005859375 459.5986328125 241.60009765625V250.900146484375Q459.5986328125 327.899658203125 417.72393798828125 371.3492431640625Q375.8492431640625 414.798828125 307.39990234375 414.798828125Q239.9505615234375 414.798828125 197.57586669921875 371.3492431640625Q155.201171875 327.899658203125 155.201171875 250.900146484375V241.60009765625Q155.201171875 164.6005859375 197.57586669921875 121.1510009765625Q239.9505615234375 77.701416015625 307.39990234375 77.701416015625Z" transform="translate(340.57,87.0) scale(0.06,-0.06)"/></g><g fill="#15B8C7"><path d="M138.12579345703125 -14Q103.0504150390625 -14 79.57513427734375 8.975871760670731Q56.099853515625 31.951743521341463 56.099853515625 67.85154314738948Q56.099853515625 103.7513427734375 79.57513427734375 126.57659912109375Q103.0504150390625 149.40185546875 138.12579345703125 149.40185546875Q173.201171875 149.40185546875 196.3514404296875 126.42598370807927Q219.501708984375 103.45011194740854 219.501708984375 67.55031232136052Q219.501708984375 31.6505126953125 196.3514404296875 8.82525634765625Q173.201171875 -14 138.12579345703125 -14Z" transform="translate(377.47,87.0) scale(0.06,-0.06)"/><path d="M279.79931640625 -14Q218.699462890625 -14 166.67449951171875 15.8499755859375Q114.6495361328125 45.699951171875 83.47454833984375 102.52496337890625Q52.299560546875 159.3499755859375 52.299560546875 238.9500732421875V253.5501708984375Q52.299560546875 333.1502685546875 83.299560546875 389.97528076171875Q114.299560546875 446.80029296875 166.17449951171875 476.6502685546875Q218.0494384765625 506.500244140625 279.79931640625 506.500244140625Q327.9490966796875 506.500244140625 360.72393798828125 494.600341796875Q393.498779296875 482.700439453125 414.07366943359375 464.42559814453125Q434.6485595703125 446.1507568359375 445.698486328125 425.700927734375H461.5986328125V700H564.500244140625V0H463.5986328125V70.1492919921875H447.698486328125Q429.298583984375 37.9495849609375 390.6488037109375 11.97479248046875Q351.9990234375 -14 279.79931640625 -14ZM309.39990234375 76.4013671875Q376.1492919921875 76.4013671875 419.52398681640625 119.32598876953125Q462.898681640625 162.2506103515625 462.898681640625 241.60009765625V250.900146484375Q462.898681640625 330.2496337890625 419.8489990234375 373.17425537109375Q376.79931640625 416.098876953125 309.39990234375 416.098876953125Q243.00048828125 416.098876953125 199.4508056640625 373.17425537109375Q155.901123046875 330.2496337890625 155.901123046875 250.900146484375V241.60009765625Q155.901123046875 162.2506103515625 199.4508056640625 119.32598876953125Q243.00048828125 76.4013671875 309.39990234375 76.4013671875Z" transform="translate(394.03,87.0) scale(0.06,-0.06)"/><path d="M301.599609375 -14Q227.2496337890625 -14 171.099609375 17.5Q114.9495849609375 49 83.62457275390625 106.32501220703125Q52.299560546875 163.6500244140625 52.299560546875 240.2501220703125V252.2501220703125Q52.299560546875 329.2001953125 83.299560546875 386.3502197265625Q114.299560546875 443.500244140625 169.77459716796875 475.000244140625Q225.2496337890625 506.500244140625 297.8497314453125 506.500244140625Q369.099853515625 506.500244140625 422.57489013671875 475.400146484375Q476.0499267578125 444.300048828125 506.0499267578125 388.199951171875Q536.0499267578125 332.099853515625 536.0499267578125 256.7998046875V217.6495361328125H156.501220703125Q158.8511962890625 152.6505126953125 200.62579345703125 114.52593994140625Q242.400390625 76.4013671875 304.19970703125 76.4013671875Q362.4493408203125 76.4013671875 391.82403564453125 102.201171875Q421.19873046875 128.0009765625 436.6485595703125 161.9505615234375L522.499755859375 118.4498291015625Q508.1497802734375 90 481.6497802734375 59.1500244140625Q455.1497802734375 28.300048828125 411.8497314453125 7.1500244140625Q368.5496826171875 -14 301.599609375 -14ZM157.501220703125 296.9505615234375H431.498291015625Q427.498291015625 352.5496826171875 391.22369384765625 384.32427978515625Q354.9490966796875 416.098876953125 297.19970703125 416.098876953125Q238.500244140625 416.098876953125 202.20068359375 384.32427978515625Q165.901123046875 352.5496826171875 157.501220703125 296.9505615234375Z" transform="translate(432.49,87.0) scale(0.06,-0.06)"/><path d="M190.098876953125 0 23.699462890625 492.500244140625H133.201171875L263.9500732421875 75.901123046875H279.8502197265625L410.59912109375 492.500244140625H520.100830078125L353.701416015625 0Z" transform="translate(467.53,87.0) scale(0.06,-0.06)"/></g></svg>
